# xmcd
#
# Track frame offsets:
#	150
#	17800
#	47837
#	65312
#	81712
#	103787
#	124950
#	144677
#	165882
#	176160
#	208050
#	228150
#	262995
#	284362
#
# Disc length: 4044 seconds
#
# Revision: 1
# Processed by: cddbd v1.5.1PL2 Copyright (c) Steve Scherf et al.
# Submitted via: audiograbber 1.83.01
#
DISCID=cc0fca0e
DTITLE=Blue Eighty Eight - Blue Eighty Eight
DYEAR=1995
DGENRE=Blues
TTITLE0=Lifes Gettin' Too Short
TTITLE1=That Spell
TTITLE2=Loreena
TTITLE3=Sawed Off Edges
TTITLE4=Strange To Say
TTITLE5=Some Kindly Word
TTITLE6=Full Moon
TTITLE7=Now It's Gone Down
TTITLE8=Blues For Jungawanga
TTITLE9=Stumble
TTITLE10=Crystal Angel
TTITLE11=All I Believe In
TTITLE12=A Thousand Miles Behind
TTITLE13=Trails Within The Harvest
EXTD=
EXTT0=
EXTT1=
EXTT2=
EXTT3=
EXTT4=
EXTT5=
EXTT6=
EXTT7=
EXTT8=
EXTT9=
EXTT10=
EXTT11=
EXTT12=
EXTT13=
PLAYORDER=
